{"title":"How.to.Train.Your.Dragon.DvdRip.x264.LKRG","uid":5864212,"size":901696375,"categoryP":"video","categoryS":"movies","magnet":"?xt=urn:btih:e37662bfa88627e8e8f825c4f3d83df013f57085&amp;dn=How.to.Train.Your.Dragon.DvdRip.x264.LKRG&amp;tr=udp%3A%2F%2Ftracker.openbittorrent.com%3A80&amp;tr=udp%3A%2F%2Fopen.demonii.com%3A1337&amp;tr=udp%3A%2F%2Ftracker.coppersurfer.tk%3A6969&amp;tr=udp%3A%2F%2Fexodus.desync.com%3A6969","seeders":0,"leechers":0,"uploader":"neon","files":-1,"time":1286090487,"description":"As the son of a Viking leader on the cusp of manhood, shy Hiccup Horrendous Haddock III faces a rite of passage: He must kill a dragon to prove his warrior mettle. But after downing a feared dragon, he realizes that he no longer wants to destroy it. So he befriends the beast -- which he names Toothless -- much to the chagrin of his warrior father. Dean DeBlois and Chris Sanders direct this animated adaptation of the book by Cressida Cowell.\n\n123o113.jpg\nGeneral\nComplete name : How.to.Train.Your.Dragon.DvdRip.x264.LKRG.m4v\nFormat : MPEG-4\nFormat profile : Base Media / Version 2\nCodec ID : mp42\nFile size : 862 MiB\nDuration : 1h 37mn\nOverall bit rate : 1 231 Kbps\n\nVideo\nID : 1\nFormat : AVC\nFormat/Info : Advanced Video Codec\nFormat profile : &lt;a class=&quot;__cf_email__&quot; href=&quot;/cdn-cgi/l/email-protection&quot; data-cfemail=&quot;4b062a22250b0778657b&quot;&gt;[email&amp;#160;protected]&lt;/a&gt;&lt;script cf-hash='f9e31' type=&quot;text/javascript&quot;&gt;\n/* &lt;![CDATA[ */!function(){try{var t=&quot;currentScript&quot;in document?document.currentScript:function(){for(var t=document.getElementsByTagName(&quot;script&quot;),e=t.length;e--;)if(t[e].getAttribute(&quot;cf-hash&quot;))return t[e]}();if(t&amp;&amp;t.previousSibling){var e,r,n,i,c=t.previousSibling,a=c.getAttribute(&quot;data-cfemail&quot;);if(a){for(e=&quot;&quot;,r=parseInt(a.substr(0,2),16),n=2;a.length-n;n+=2)i=parseInt(a.substr(n,2),16)^r,e+=String.fromCharCode(i);e=document.createTextNode(e),c.parentNode.replaceChild(e,c)}}}catch(u){}}();/* ]]&gt; */&lt;/script&gt;\nFormat settings, CABAC : Yes\nFormat settings, ReFrames : 2 frames\nCodec ID : avc1\nCodec ID/Info : Advanced Video Coding\nDuration : 1h 37mn\nBit rate mode : Variable\nBit rate : 1 066 Kbps\nWidth : 720 pixels\nHeight : 368 pixels\nDisplay aspect ratio : 2.35:1\nOriginal display aspect ratio : 2.35:1\nFrame rate mode : Variable\nFrame rate : 23.976 fps\nMinimum frame rate : 11.989 fps\nMaximum frame rate : 47.120 fps\nColor space : YUV\nChroma subsampling : 4:2:0\nBit depth : 8 bits\nScan type : Progressive\nBits/(Pixel*Frame) : 0.168\nStream size : 746 MiB (87%)\nWriting library : x264 core 79\n\nAudio\nID : 2\nFormat : AAC\nFormat/Info : Advanced Audio Codec\nFormat version : Version 4\nFormat profile : LC\nFormat settings, SBR : No\nCodec ID : 40\nDuration : 1h 37mn\nBit rate mode : Variable\nBit rate : 160 Kbps\nMaximum bit rate : 222 Kbps\nChannel(s) : 2 channels\nChannel positions : Front: L R\nSampling rate : 48.0 KHz\nStream size : 112 MiB (13%)\nLanguage : English\n","torrent":{"xt":"urn:btih:e37662bfa88627e8e8f825c4f3d83df013f57085","amp;dn":"How.to.Train.Your.Dragon.DvdRip.x264.LKRG","amp;tr":["udp%3A%2F%2Ftracker.openbittorrent.com%3A80","udp%3A%2F%2Fopen.demonii.com%3A1337","udp%3A%2F%2Ftracker.coppersurfer.tk%3A6969","udp%3A%2F%2Fexodus.desync.com%3A6969"],"infoHash":"e37662bfa88627e8e8f825c4f3d83df013f57085","infoHashBuffer":{"type":"Buffer","data":[227,118,98,191,168,134,39,232,232,248,37,196,243,216,61,240,19,245,112,133]},"announce":[],"urlList":[]}}